<mxfile host="app.diagrams.net" agent="Mozilla/5.0 (Windows NT 10.0; Win64; x64) AppleWebKit/537.36 (KHTML, like Gecko) Chrome/132.0.0.0 Safari/537.36 Edg/132.0.0.0" version="25.0.3">
  <diagram name="Page-1" id="IPYXhTwkCR0yidCwTC4I">
    <mxGraphModel dx="1042" dy="531" grid="1" gridSize="10" guides="1" tooltips="1" connect="1" arrows="1" fold="1" page="1" pageScale="1" pageWidth="850" pageHeight="1100" math="0" shadow="0">
      <root>
        <mxCell id="0" />
        <mxCell id="1" parent="0" />
        <mxCell id="Qe65LiW5yLkklclJPjg4-3" style="edgeStyle=orthogonalEdgeStyle;rounded=0;orthogonalLoop=1;jettySize=auto;html=1;entryX=0;entryY=0.5;entryDx=0;entryDy=0;" edge="1" parent="1" source="Qe65LiW5yLkklclJPjg4-1" target="Qe65LiW5yLkklclJPjg4-2">
          <mxGeometry relative="1" as="geometry" />
        </mxCell>
        <mxCell id="Qe65LiW5yLkklclJPjg4-4" value="Resume&lt;br&gt;and&amp;nbsp;&lt;br&gt;Job Description" style="edgeLabel;html=1;align=center;verticalAlign=middle;resizable=0;points=[];" vertex="1" connectable="0" parent="Qe65LiW5yLkklclJPjg4-3">
          <mxGeometry x="-0.46" y="-1" relative="1" as="geometry">
            <mxPoint as="offset" />
          </mxGeometry>
        </mxCell>
        <mxCell id="Qe65LiW5yLkklclJPjg4-1" value="User" style="ellipse;whiteSpace=wrap;html=1;" vertex="1" parent="1">
          <mxGeometry x="70" y="230" width="120" height="80" as="geometry" />
        </mxCell>
        <mxCell id="Qe65LiW5yLkklclJPjg4-6" value="" style="edgeStyle=orthogonalEdgeStyle;rounded=0;orthogonalLoop=1;jettySize=auto;html=1;" edge="1" parent="1" source="Qe65LiW5yLkklclJPjg4-2" target="Qe65LiW5yLkklclJPjg4-5">
          <mxGeometry relative="1" as="geometry" />
        </mxCell>
        <mxCell id="Qe65LiW5yLkklclJPjg4-7" value="produce&amp;nbsp;&lt;br&gt;output" style="edgeLabel;html=1;align=center;verticalAlign=middle;resizable=0;points=[];" vertex="1" connectable="0" parent="Qe65LiW5yLkklclJPjg4-6">
          <mxGeometry x="-0.105" y="-1" relative="1" as="geometry">
            <mxPoint as="offset" />
          </mxGeometry>
        </mxCell>
        <mxCell id="Qe65LiW5yLkklclJPjg4-2" value="Our System(Processes)&lt;div&gt;&lt;br&gt;&lt;/div&gt;" style="ellipse;whiteSpace=wrap;html=1;" vertex="1" parent="1">
          <mxGeometry x="360" y="230" width="120" height="80" as="geometry" />
        </mxCell>
        <mxCell id="Qe65LiW5yLkklclJPjg4-5" value="Match Score(%)" style="ellipse;whiteSpace=wrap;html=1;" vertex="1" parent="1">
          <mxGeometry x="610" y="230" width="120" height="80" as="geometry" />
        </mxCell>
      </root>
    </mxGraphModel>
  </diagram>
</mxfile>
